<svg width="316" height="316" viewBox="0 0 316 316" fill="none" xmlns="http://www.w3.org/2000/svg">
<g filter="url(#filter0_d_138_542)">
<path d="M76.3932 138.369C77.3219 140.611 76.8086 143.191 75.0926 144.907L66.2426 153.757C63.8995 156.101 63.8995 159.899 66.2426 162.243L75.0926 171.093C76.8086 172.809 77.322 175.389 76.3933 177.631L71.6037 189.195C70.3356 192.256 71.7894 195.766 74.8508 197.034L86.4139 201.823C88.6559 202.752 90.1178 204.94 90.1178 207.367V219.882C90.1178 223.196 92.804 225.882 96.1178 225.882H108.633C111.06 225.882 113.248 227.344 114.177 229.586L118.966 241.149C120.234 244.211 123.744 245.665 126.806 244.396L138.369 239.607C140.611 238.678 143.191 239.191 144.907 240.907L153.757 249.757C156.101 252.101 159.899 252.101 162.243 249.757L171.092 240.908C172.808 239.192 175.389 238.678 177.631 239.607L189.194 244.397C192.256 245.665 195.766 244.211 197.034 241.149L201.823 229.586C202.752 227.344 204.94 225.882 207.367 225.882H219.882C223.196 225.882 225.882 223.196 225.882 219.882V207.367C225.882 204.94 227.344 202.752 229.586 201.823L241.149 197.034C244.211 195.766 245.664 192.256 244.396 189.194L239.607 177.631C238.678 175.389 239.191 172.809 240.907 171.093L249.757 162.243C252.1 159.899 252.101 156.101 249.757 153.757L240.907 144.907C239.191 143.191 238.678 140.611 239.607 138.369L244.396 126.806C245.664 123.744 244.211 120.235 241.149 118.966L229.586 114.177C227.344 113.248 225.882 111.06 225.882 108.634V96.1177C225.882 92.804 223.196 90.1177 219.882 90.1177H207.367C204.94 90.1177 202.752 88.6559 201.823 86.4138L197.034 74.8509C195.766 71.7894 192.256 70.3356 189.194 71.6037L177.631 76.3933C175.389 77.322 172.809 76.8086 171.093 75.0926L162.243 66.2426C159.899 63.8995 156.101 63.8995 153.757 66.2426L144.907 75.0927C143.191 76.8087 140.611 77.322 138.369 76.3933L126.806 71.6038C123.744 70.3357 120.234 71.7896 118.966 74.851L114.177 86.4138C113.248 88.6559 111.06 90.1177 108.634 90.1177H96.1178C92.8041 90.1177 90.1178 92.804 90.1178 96.1177V108.634C90.1178 111.06 88.6559 113.248 86.4139 114.177L74.8509 118.966C71.7894 120.234 70.3356 123.744 71.6037 126.806L76.3932 138.369Z" fill="#FFCF55"/>
<path d="M76.3932 138.369C77.3219 140.611 76.8086 143.191 75.0926 144.907L66.2426 153.757C63.8995 156.101 63.8995 159.899 66.2426 162.243L75.0926 171.093C76.8086 172.809 77.322 175.389 76.3933 177.631L71.6037 189.195C70.3356 192.256 71.7894 195.766 74.8508 197.034L86.4139 201.823C88.6559 202.752 90.1178 204.94 90.1178 207.367V219.882C90.1178 223.196 92.804 225.882 96.1178 225.882H108.633C111.06 225.882 113.248 227.344 114.177 229.586L118.966 241.149C120.234 244.211 123.744 245.665 126.806 244.396L138.369 239.607C140.611 238.678 143.191 239.191 144.907 240.907L153.757 249.757C156.101 252.101 159.899 252.101 162.243 249.757L171.092 240.908C172.808 239.192 175.389 238.678 177.631 239.607L189.194 244.397C192.256 245.665 195.766 244.211 197.034 241.149L201.823 229.586C202.752 227.344 204.94 225.882 207.367 225.882H219.882C223.196 225.882 225.882 223.196 225.882 219.882V207.367C225.882 204.94 227.344 202.752 229.586 201.823L241.149 197.034C244.211 195.766 245.664 192.256 244.396 189.194L239.607 177.631C238.678 175.389 239.191 172.809 240.907 171.093L249.757 162.243C252.1 159.899 252.101 156.101 249.757 153.757L240.907 144.907C239.191 143.191 238.678 140.611 239.607 138.369L244.396 126.806C245.664 123.744 244.211 120.235 241.149 118.966L229.586 114.177C227.344 113.248 225.882 111.06 225.882 108.634V96.1177C225.882 92.804 223.196 90.1177 219.882 90.1177H207.367C204.94 90.1177 202.752 88.6559 201.823 86.4138L197.034 74.8509C195.766 71.7894 192.256 70.3356 189.194 71.6037L177.631 76.3933C175.389 77.322 172.809 76.8086 171.093 75.0926L162.243 66.2426C159.899 63.8995 156.101 63.8995 153.757 66.2426L144.907 75.0927C143.191 76.8087 140.611 77.322 138.369 76.3933L126.806 71.6038C123.744 70.3357 120.234 71.7896 118.966 74.851L114.177 86.4138C113.248 88.6559 111.06 90.1177 108.634 90.1177H96.1178C92.8041 90.1177 90.1178 92.804 90.1178 96.1177V108.634C90.1178 111.06 88.6559 113.248 86.4139 114.177L74.8509 118.966C71.7894 120.234 70.3356 123.744 71.6037 126.806L76.3932 138.369Z" fill="url(#paint0_linear_138_542)" fill-opacity="0.5" style="mix-blend-mode:overlay"/>
</g>
<path d="M182 142L149.997 175L134 158.5" stroke="#0A0A0A" stroke-width="16" stroke-linecap="square"/>
<defs>
<filter id="filter0_d_138_542" x="0.485283" y="0.485352" width="315.029" height="315.029" filterUnits="userSpaceOnUse" color-interpolation-filters="sRGB">
<feFlood flood-opacity="0" result="BackgroundImageFix"/>
<feColorMatrix in="SourceAlpha" type="matrix" values="0 0 0 0 0 0 0 0 0 0 0 0 0 0 0 0 0 0 127 0" result="hardAlpha"/>
<feOffset/>
<feGaussianBlur stdDeviation="32"/>
<feComposite in2="hardAlpha" operator="out"/>
<feColorMatrix type="matrix" values="0 0 0 0 0 0 0 0 0 0 0 0 0 0 0 0 0 0 0.75 0"/>
<feBlend mode="normal" in2="BackgroundImageFix" result="effect1_dropShadow_138_542"/>
<feBlend mode="normal" in="SourceGraphic" in2="effect1_dropShadow_138_542" result="shape"/>
</filter>
<linearGradient id="paint0_linear_138_542" x1="254" y1="62" x2="62" y2="254" gradientUnits="userSpaceOnUse">
<stop stop-color="white"/>
<stop offset="1"/>
</linearGradient>
</defs>
</svg>
